<svg width="40" height="34" viewBox="0 0 40 34" fill="none" xmlns="http://www.w3.org/2000/svg">
<path d="M6.28418 12.3643L2.80371 22.9727H0L4.75488 10.1758H6.53906L6.28418 12.3643ZM9.17578 22.9727L5.68652 12.3643L5.40527 10.1758H7.20703L11.9883 22.9727H9.17578ZM9.01758 18.209V20.2744H2.25879V18.209H9.01758Z" fill="#011F3D"/>
<path d="M13.1748 10.1758H17.9473C18.9258 10.1758 19.7666 10.3223 20.4697 10.6152C21.1787 10.9082 21.7236 11.3418 22.1045 11.916C22.4854 12.4902 22.6758 13.1963 22.6758 14.0342C22.6758 14.7197 22.5586 15.3086 22.3242 15.8008C22.0957 16.2871 21.7705 16.6943 21.3486 17.0225C20.9326 17.3447 20.4434 17.6025 19.8809 17.7959L19.0459 18.2354H14.8975L14.8799 16.1787H17.9648C18.4277 16.1787 18.8115 16.0967 19.1162 15.9326C19.4209 15.7686 19.6494 15.54 19.8018 15.2471C19.96 14.9541 20.0391 14.6143 20.0391 14.2275C20.0391 13.8174 19.9629 13.4629 19.8105 13.1641C19.6582 12.8652 19.4268 12.6367 19.1162 12.4785C18.8057 12.3203 18.416 12.2412 17.9473 12.2412H15.8115V22.9727H13.1748V10.1758ZM20.3291 22.9727L17.4111 17.2686L20.1973 17.251L23.1504 22.8496V22.9727H20.3291Z" fill="#011F3D"/>
<path d="M27.5098 10.1758V22.9727H24.8818V10.1758H27.5098Z" fill="#011F3D"/>
<path d="M36.6416 19.624C36.6416 19.3955 36.6064 19.1904 36.5361 19.0088C36.4717 18.8213 36.3486 18.6514 36.167 18.499C35.9854 18.3408 35.7305 18.1855 35.4023 18.0332C35.0742 17.8809 34.6494 17.7227 34.1279 17.5586C33.5479 17.3711 32.9971 17.1602 32.4756 16.9258C31.96 16.6914 31.5029 16.4189 31.1045 16.1084C30.7119 15.792 30.4014 15.4258 30.1729 15.0098C29.9502 14.5938 29.8389 14.1104 29.8389 13.5596C29.8389 13.0264 29.9561 12.543 30.1904 12.1094C30.4248 11.6699 30.7529 11.2949 31.1748 10.9844C31.5967 10.668 32.0947 10.4248 32.6689 10.2549C33.249 10.085 33.8848 10 34.5762 10C35.5195 10 36.3428 10.1699 37.0459 10.5098C37.749 10.8496 38.2939 11.3154 38.6807 11.9072C39.0732 12.499 39.2695 13.1758 39.2695 13.9375H36.6504C36.6504 13.5625 36.5713 13.2344 36.4131 12.9531C36.2607 12.666 36.0264 12.4404 35.71 12.2764C35.3994 12.1123 35.0068 12.0303 34.5322 12.0303C34.0752 12.0303 33.6943 12.1006 33.3896 12.2412C33.085 12.376 32.8564 12.5605 32.7041 12.7949C32.5518 13.0234 32.4756 13.2812 32.4756 13.5684C32.4756 13.7852 32.5283 13.9814 32.6338 14.1572C32.7451 14.333 32.9092 14.4971 33.126 14.6494C33.3428 14.8018 33.6094 14.9453 33.9258 15.0801C34.2422 15.2148 34.6084 15.3467 35.0244 15.4756C35.7217 15.6865 36.334 15.9238 36.8613 16.1875C37.3945 16.4512 37.8398 16.7471 38.1973 17.0752C38.5547 17.4033 38.8242 17.7754 39.0059 18.1914C39.1875 18.6074 39.2783 19.0791 39.2783 19.6064C39.2783 20.1631 39.1699 20.6611 38.9531 21.1006C38.7363 21.54 38.4229 21.9121 38.0127 22.2168C37.6025 22.5215 37.1133 22.7529 36.5449 22.9111C35.9766 23.0693 35.3408 23.1484 34.6377 23.1484C34.0049 23.1484 33.3809 23.0664 32.7656 22.9023C32.1504 22.7324 31.5908 22.4775 31.0869 22.1377C30.5889 21.7979 30.1904 21.3643 29.8916 20.8369C29.5928 20.3096 29.4434 19.6855 29.4434 18.9648H32.0889C32.0889 19.3633 32.1504 19.7002 32.2734 19.9756C32.3965 20.251 32.5693 20.4736 32.792 20.6436C33.0205 20.8135 33.29 20.9365 33.6006 21.0127C33.917 21.0889 34.2627 21.127 34.6377 21.127C35.0947 21.127 35.4697 21.0625 35.7627 20.9336C36.0615 20.8047 36.2812 20.626 36.4219 20.3975C36.5684 20.1689 36.6416 19.9111 36.6416 19.624Z" fill="#011F3D"/>
</svg>
