<?xml version="1.0" standalone="no"?>
<!DOCTYPE svg PUBLIC "-//W3C//DTD SVG 20010904//EN"
 "http://www.w3.org/TR/2001/REC-SVG-20010904/DTD/svg10.dtd">
<svg version="1.0" xmlns="http://www.w3.org/2000/svg"
 width="400.000000pt" height="400.000000pt" viewBox="0 0 400.000000 400.000000"
 preserveAspectRatio="xMidYMid meet">

<g transform="translate(0.000000,400.000000) scale(0.100000,-0.100000)"
fill="#000000" stroke="none">
<path d="M2126 3334 c-64 -20 -132 -89 -217 -219 -171 -260 -319 -392 -694
-615 -279 -166 -388 -256 -448 -367 -71 -133 -92 -373 -50 -573 101 -477 492
-816 1035 -896 148 -22 396 -15 513 15 251 62 444 169 615 341 185 186 301
400 357 660 28 130 25 407 -5 558 -71 353 -219 642 -441 862 -114 112 -203
171 -329 218 -87 32 -261 40 -336 16z m260 -49 c138 -32 256 -104 385 -235
219 -222 369 -544 424 -907 73 -493 -134 -975 -533 -1236 -235 -154 -468 -217
-756 -204 -485 21 -882 261 -1060 637 -79 167 -114 366 -96 532 12 109 24 158
52 213 63 125 143 193 417 357 413 247 542 361 740 656 86 127 124 165 188
188 50 17 163 17 239 -1z"/>
<path d="M1965 2349 c-242 -40 -381 -234 -362 -504 13 -184 111 -326 267 -387
118 -46 311 -33 415 27 85 50 167 161 190 258 l7 27 -100 0 -100 0 -12 -35
c-26 -80 -102 -133 -200 -142 -174 -16 -293 126 -277 330 9 124 55 203 141
243 64 30 162 32 221 5 50 -22 111 -89 120 -130 l7 -31 100 0 100 0 -7 33
c-22 107 -104 211 -208 262 -100 48 -194 62 -302 44z"/>
</g>
</svg>
