<?xml version="1.0" standalone="no"?>
<!DOCTYPE svg PUBLIC "-//W3C//DTD SVG 20010904//EN"
 "http://www.w3.org/TR/2001/REC-SVG-20010904/DTD/svg10.dtd">
<svg version="1.0" xmlns="http://www.w3.org/2000/svg"
 width="1024.000000pt" height="461.000000pt" viewBox="0 0 1024.000000 461.000000"
 preserveAspectRatio="xMidYMid meet">

<g transform="translate(0.000000,461.000000) scale(0.100000,-0.100000)"
fill="#000000" stroke="none">
<path d="M5352 4235 c-141 -31 -213 -92 -354 -303 -180 -270 -313 -422 -503
-575 -96 -77 -359 -257 -377 -257 -4 0 -8 34 -8 75 l0 75 -155 0 -155 0 0
-172 0 -173 -48 -27 c-142 -80 -313 -225 -384 -327 l-17 -24 -55 50 c-203 186
-581 232 -851 104 -178 -84 -308 -242 -367 -446 -20 -70 -23 -102 -23 -250 0
-148 3 -180 23 -249 73 -254 252 -432 499 -497 111 -30 316 -30 426 0 101 27
195 72 261 125 l52 43 24 -59 c13 -33 49 -104 80 -157 218 -377 585 -655 1036
-785 219 -63 349 -80 609 -80 273 0 389 18 603 89 317 106 580 279 799 525
255 286 416 646 464 1033 12 101 7 458 -7 505 -6 21 -4 22 22 16 118 -28 200
-86 247 -173 52 -95 57 -144 57 -638 l0 -453 156 0 155 0 -3 528 -4 527 -25
82 c-33 106 -80 181 -156 253 -107 100 -218 140 -394 140 l-106 0 -32 113
c-83 285 -221 567 -393 799 -78 104 -240 272 -333 343 -241 185 -534 269 -763
220z m323 -105 c194 -50 351 -146 530 -325 214 -214 377 -481 500 -821 33 -90
78 -245 73 -248 -2 -1 -37 -18 -78 -39 -89 -43 -167 -108 -212 -179 l-33 -51
-3 132 -3 131 -154 0 -155 0 0 -750 0 -750 155 0 155 0 0 429 c0 467 6 537 55
638 49 99 161 177 281 197 l41 7 7 -53 c70 -562 -102 -1096 -481 -1489 -417
-432 -952 -609 -1582 -523 -618 84 -1123 438 -1339 939 -47 109 -47 105 -2
181 32 54 80 175 80 200 0 2 -42 4 -94 4 l-93 0 -7 46 c-3 26 -6 62 -6 80 l0
33 113 3 112 3 -2 95 c-2 122 -33 255 -83 354 l-38 77 42 57 c54 73 146 156
258 233 l88 60 0 -785 0 -786 155 0 155 0 0 875 0 875 38 23 c287 182 449 304
586 440 111 112 185 205 316 397 190 280 229 308 436 309 80 1 132 -4 189 -19z
m-2684 -1668 c69 -34 126 -83 164 -141 24 -36 65 -142 65 -168 0 -11 -77 -13
-430 -13 l-429 0 5 33 c9 51 58 149 94 191 45 51 105 91 176 116 50 17 77 20
175 17 107 -3 121 -5 180 -35z m229 -606 c0 -35 3 -71 6 -80 4 -11 1 -16 -10
-16 -9 0 -16 -6 -16 -12 0 -7 -11 -35 -24 -63 -61 -131 -212 -215 -386 -215
-247 0 -409 151 -433 403 l-5 47 434 0 434 0 0 -64z"/>
<path d="M5035 2749 c-183 -19 -321 -83 -445 -208 -151 -151 -213 -313 -214
-551 0 -156 20 -253 79 -375 112 -232 313 -365 596 -396 173 -19 367 20 507
102 90 54 200 170 250 266 68 132 85 210 86 398 0 138 -3 171 -22 240 -57 199
-182 355 -352 439 -153 75 -311 103 -485 85z m246 -289 c151 -51 245 -160 283
-327 57 -252 -31 -495 -212 -591 -154 -81 -360 -65 -490 38 -241 190 -219 688
36 837 78 46 139 62 235 63 62 0 105 -6 148 -20z"/>
<path d="M7944 3336 c-110 -49 -136 -209 -48 -293 89 -84 275 -58 329 47 22
42 19 125 -6 169 -34 61 -80 86 -168 89 -49 1 -87 -3 -107 -12z"/>
<path d="M1055 2750 c-319 -34 -545 -227 -626 -535 -17 -62 -22 -112 -23 -220
-1 -173 17 -261 81 -395 39 -80 59 -108 132 -181 146 -146 294 -202 531 -201
157 0 248 19 369 79 111 54 224 170 279 284 23 46 48 112 56 147 l14 62 -167
0 -167 0 -13 -50 c-25 -98 -119 -193 -227 -230 -84 -29 -219 -29 -297 0 -123
46 -219 157 -253 292 -22 88 -25 267 -5 348 33 136 114 241 226 295 51 24 75
30 160 33 115 5 197 -16 271 -70 65 -46 134 -155 134 -209 0 -18 10 -19 170
-19 l170 0 -6 28 c-54 231 -187 397 -389 484 -112 49 -284 72 -420 58z"/>
<path d="M8890 2739 c-283 -73 -428 -273 -364 -501 12 -42 30 -74 62 -109 77
-85 141 -115 476 -218 282 -87 336 -114 372 -183 21 -40 18 -115 -6 -153 -67
-108 -360 -142 -520 -60 -86 44 -150 122 -150 183 0 22 -2 22 -161 22 l-162 0
6 -61 c17 -187 196 -354 447 -415 105 -26 365 -26 465 0 172 44 311 140 365
251 22 43 25 64 25 155 0 133 -20 184 -106 265 -73 70 -173 118 -364 175 -322
96 -393 126 -430 184 -22 33 -22 103 -1 144 57 109 281 147 433 72 73 -36 120
-91 129 -152 l7 -38 153 0 153 0 -5 38 c-15 109 -65 205 -142 273 -61 53 -190
116 -277 134 -104 22 -311 19 -405 -6z"/>
<path d="M7884 2725 c-2 -5 -3 -343 -1 -750 l2 -740 158 -3 157 -3 -2 751 -3
751 -154 2 c-95 1 -155 -2 -157 -8z"/>
</g>
</svg>
